<svg width="46" height="46" viewBox="0 0 46 46" fill="none" xmlns="http://www.w3.org/2000/svg">
<g opacity="0.2">
<path fill-rule="evenodd" clip-rule="evenodd" d="M24.9173 3.83325V7.79884C28.2903 8.22884 31.4251 9.76675 33.8294 12.1711C36.2338 14.5755 37.7717 17.7102 38.2017 21.0833H42.1673V24.9166H38.2017C37.772 28.2897 36.2342 31.4246 33.8298 33.8291C31.4254 36.2335 28.2905 37.7713 24.9173 38.201V42.1666H21.084V38.201C17.7109 37.7713 14.5759 36.2335 12.1715 33.8291C9.76706 31.4246 8.22926 28.2897 7.79957 24.9166H3.83398V21.0833H7.79957C8.22958 17.7102 9.76748 14.5755 12.1719 12.1711C14.5762 9.76675 17.711 8.22884 21.084 7.79884V3.83325H24.9173ZM11.5007 22.9999C11.5007 29.3422 16.6584 34.4999 23.0007 34.4999C29.3429 34.4999 34.5007 29.3422 34.5007 22.9999C34.5007 16.6577 29.3429 11.4999 23.0007 11.4999C16.6584 11.4999 11.5007 16.6577 11.5007 22.9999ZM28.7507 23C28.7507 26.1756 26.1764 28.75 23.0007 28.75C19.8251 28.75 17.2507 26.1756 17.2507 23C17.2507 19.8244 19.8251 17.25 23.0007 17.25C26.1764 17.25 28.7507 19.8244 28.7507 23Z" fill="#8585F6"/>
</g>
</svg>
