<svg width="28" height="28" viewBox="0 0 28 28" fill="none" xmlns="http://www.w3.org/2000/svg">
<g opacity="0.2">
<path fill-rule="evenodd" clip-rule="evenodd" d="M19.9746 16.916L20.0204 17.0306C20.8453 18.7948 20.4787 20.9026 19.0811 22.3003L17.0878 24.2936C16.6524 24.7518 15.8963 24.6143 15.6214 24.0415L14.1322 20.811L12.3909 21.9108C11.9555 22.1628 11.4057 22.094 11.062 21.7504L6.25054 16.9389C5.88396 16.5723 5.83813 16.0225 6.09016 15.6101L7.18992 13.8688L3.95938 12.3795C3.38659 12.1275 3.24912 11.3714 3.70735 10.9132L5.70066 8.91985C7.09827 7.54515 9.18323 7.15565 10.9703 7.98047L11.062 8.00338C16.4921 2.87117 22.1054 2.96282 24.0071 3.19194C24.4195 3.23776 24.7402 3.55852 24.7861 3.97093C25.0152 5.8726 25.1068 11.486 19.9746 16.916ZM15.461 9.08023C14.4987 10.0425 14.4987 11.5776 15.461 12.5399C16.4233 13.4793 17.9813 13.4793 18.9207 12.5399C19.8601 11.5776 19.883 10.0425 18.9207 9.08023C17.9584 8.11794 16.4233 8.11794 15.461 9.08023ZM6.2044 21.3603C6.2044 21.6124 6.4106 21.7956 6.63972 21.7956C6.68986 21.7929 6.74441 21.7901 6.803 21.7871C7.22621 21.7655 7.85989 21.7331 8.5643 21.6123L9.82444 22.8496C7.69365 24.6596 4.64641 24.8658 3.54665 24.8887C3.29462 24.8887 3.11133 24.6825 3.11133 24.4534C3.13424 23.3536 3.34044 20.3064 5.15046 18.1756L6.38769 19.4357C6.25022 20.2376 6.2044 20.9479 6.2044 21.3603Z" fill="#8585F6"/>
</g>
</svg>
