<svg width="34" height="45" viewBox="0 0 34 45" fill="none" xmlns="http://www.w3.org/2000/svg">
<g opacity="0.2">
<path d="M8.74148 33.6965C9.03417 32.6003 9.57695 31.6512 10.295 30.9798C11.0131 30.3084 11.871 29.9478 12.7507 29.9478C13.6303 29.9478 14.4882 30.3084 15.2063 30.9798C15.9244 31.6512 16.4671 32.6003 16.7598 33.6965H31.1673V37.4405H16.7598C16.4671 38.5366 15.9244 39.4858 15.2063 40.1572C14.4882 40.8286 13.6303 41.1892 12.7507 41.1892C11.871 41.1892 11.0131 40.8286 10.295 40.1572C9.57695 39.4858 9.03417 38.5366 8.74148 37.4405H2.83398V33.6965H8.74148ZM17.2415 20.5923C17.5342 19.4962 18.0769 18.547 18.795 17.8756C19.5131 17.2042 20.371 16.8437 21.2507 16.8437C22.1303 16.8437 22.9883 17.2042 23.7063 17.8756C24.4244 18.547 24.9671 19.4962 25.2598 20.5923H31.1673V24.3364H25.2598C24.9671 25.4325 24.4244 26.3817 23.7063 27.0531C22.9883 27.7244 22.1303 28.085 21.2507 28.085C20.371 28.085 19.5131 27.7244 18.795 27.0531C18.0769 26.3817 17.5342 25.4325 17.2415 24.3364H2.83398V20.5923H17.2415ZM8.74148 7.48814C9.03417 6.39201 9.57695 5.44283 10.295 4.77144C11.0131 4.10005 11.871 3.7395 12.7507 3.7395C13.6303 3.7395 14.4882 4.10005 15.2063 4.77144C15.9244 5.44283 16.4671 6.39201 16.7598 7.48814H31.1673V11.2322H16.7598C16.4671 12.3283 15.9244 13.2775 15.2063 13.9489C14.4882 14.6203 13.6303 14.9808 12.7507 14.9808C11.871 14.9808 11.0131 14.6203 10.295 13.9489C9.57695 13.2775 9.03417 12.3283 8.74148 11.2322H2.83398V7.48814H8.74148Z" fill="#8585F6"/>
</g>
</svg>
